<svg width="34" height="38" viewBox="0 0 34 38" fill="none" xmlns="http://www.w3.org/2000/svg">
<path id="Vector" d="M17 19C22.3656 19 26.7143 14.7473 26.7143 9.5C26.7143 4.25273 22.3656 0 17 0C11.6344 0 7.28571 4.25273 7.28571 9.5C7.28571 14.7473 11.6344 19 17 19ZM23.8 21.375H22.5326C20.8478 22.132 18.9732 22.5625 17 22.5625C15.0268 22.5625 13.1598 22.132 11.4674 21.375H10.2C4.56875 21.375 0 25.843 0 31.35V34.4375C0 36.4043 1.6317 38 3.64286 38H30.3571C32.3683 38 34 36.4043 34 34.4375V31.35C34 25.843 29.4313 21.375 23.8 21.375Z" fill="white"/>
</svg>
