<svg width="42" height="36" viewBox="0 0 42 36" fill="none" xmlns="http://www.w3.org/2000/svg">
<path id="Vector" d="M39.0515 1.47977C35.184 1.6293 27.4866 2.31828 22.6664 5.34894C22.3337 5.55805 22.1383 5.93887 22.1277 6.34142L21.3989 34.0835C21.3758 34.9641 22.2511 35.5409 23.0123 35.1492C27.9565 32.6051 35.0252 32.0407 38.5161 31.9215C39.708 31.8806 40.6603 30.8693 40.6928 29.6319L41.3695 3.87436C41.4056 2.52413 40.3515 1.42991 39.0515 1.47977ZM19.3878 5.27457C14.7331 2.02902 7.08112 0.99265 3.22609 0.667196C1.93027 0.558467 0.819882 1.60359 0.78441 2.95383L0.107722 28.7121C0.0751942 29.9503 0.973233 31.0036 2.16156 31.0977C5.64349 31.375 12.6776 32.26 17.4824 35.0269C18.2199 35.4517 19.1217 34.916 19.1447 34.0377L19.874 6.27657C19.8846 5.87325 19.7097 5.49929 19.3878 5.27457Z" fill="#95BA48"/>
</svg>
