<svg width="46" height="35" viewBox="0 0 46 35" fill="none" xmlns="http://www.w3.org/2000/svg">
<path id="Vector" d="M22.3901 9.07992L7.66727 20.9445V33.7499C7.66727 34.0814 7.80188 34.3994 8.0415 34.6338C8.28111 34.8683 8.60609 35 8.94495 35L17.8935 34.9773C18.2313 34.9757 18.5546 34.8433 18.7928 34.609C19.0311 34.3747 19.1648 34.0577 19.1648 33.7272V26.249C19.1648 25.9175 19.2994 25.5995 19.539 25.365C19.7786 25.1306 20.1036 24.9989 20.4425 24.9989H25.5532C25.892 24.9989 26.217 25.1306 26.4566 25.365C26.6963 25.5995 26.8309 25.9175 26.8309 26.249V33.7217C26.8303 33.8862 26.863 34.0492 26.927 34.2013C26.9909 34.3535 27.085 34.4917 27.2037 34.6082C27.3224 34.7247 27.4634 34.8172 27.6187 34.8802C27.7739 34.9433 27.9404 34.9758 28.1085 34.9758L37.0539 35C37.3928 35 37.7177 34.8683 37.9574 34.6338C38.197 34.3994 38.3316 34.0814 38.3316 33.7499V20.9359L23.6119 9.07992C23.4389 8.94344 23.2233 8.86901 23.001 8.86901C22.7788 8.86901 22.5632 8.94344 22.3901 9.07992ZM45.6463 17.1441L38.9704 11.7599V0.937605C38.9704 0.688937 38.8695 0.450453 38.6898 0.274618C38.51 0.0987832 38.2663 0 38.0122 0H33.5403C33.2861 0 33.0424 0.0987832 32.8627 0.274618C32.683 0.450453 32.582 0.688937 32.582 0.937605V6.61089L25.4326 0.855564C24.7465 0.303143 23.8856 0.0011043 22.997 0.0011043C22.1085 0.0011043 21.2476 0.303143 20.5615 0.855564L0.347767 17.1441C0.250734 17.2226 0.170454 17.319 0.111514 17.4278C0.0525748 17.5367 0.0161313 17.6558 0.00426598 17.7784C-0.00759936 17.9011 0.00534602 18.0248 0.0423624 18.1425C0.0793788 18.2602 0.139741 18.3697 0.219999 18.4646L2.2563 20.8867C2.33634 20.9819 2.43479 21.0608 2.54601 21.1187C2.65724 21.1767 2.77905 21.2126 2.90448 21.2244C3.02991 21.2363 3.15649 21.2238 3.27697 21.1877C3.39746 21.1516 3.50949 21.0926 3.60665 21.0141L22.3901 5.87644C22.5632 5.73996 22.7788 5.66553 23.001 5.66553C23.2233 5.66553 23.4389 5.73996 23.6119 5.87644L42.3962 21.0141C42.4932 21.0926 42.605 21.1517 42.7254 21.1879C42.8457 21.2241 42.9721 21.2368 43.0974 21.2251C43.2228 21.2135 43.3445 21.1779 43.4558 21.1202C43.567 21.0625 43.6655 20.984 43.7457 20.8891L45.782 18.4669C45.8622 18.3715 45.9223 18.2615 45.9589 18.1432C45.9955 18.025 46.0078 17.9008 45.9952 17.7779C45.9826 17.655 45.9453 17.5357 45.8854 17.4269C45.8255 17.3182 45.7443 17.222 45.6463 17.1441Z" fill="white"/>
</svg>
